HIERARCHY
ROOT Hips
{
	OFFSET 0.00000 0.00000 0.00000
	CHANNELS 6 Xposition Yposition Zposition Zrotation Yrotation Xrotation 
	JOINT LHipJoint
	{
		OFFSET 0 0 0
		CHANNELS 3 Zrotation Yrotation Xrotation
		JOINT LeftUpLeg
		{
			OFFSET 1.75344 -1.53157 0.77399
			CHANNELS 3 Zrotation Yrotation Xrotation
			JOINT LeftLeg
			{
				OFFSET 2.25415 -6.19323 0.00000
				CHANNELS 3 Zrotation Yrotation Xrotation
				JOINT LeftFoot
				{
					OFFSET 2.30342 -6.32861 0.00000
					CHANNELS 3 Zrotation Yrotation Xrotation
					JOINT LeftToeBase
					{
						OFFSET 0.10958 -0.30108 1.49206
						CHANNELS 3 Zrotation Yrotation Xrotation
						End Site
						{
							OFFSET 0.00000 -0.00000 0.77783
						}
					}
				}
			}
		}
	}
	JOINT RHipJoint
	{
		OFFSET 0 0 0
		CHANNELS 3 Zrotation Yrotation Xrotation
		JOINT RightUpLeg
		{
			OFFSET -1.81912 -1.53156 0.77399
			CHANNELS 3 Zrotation Yrotation Xrotation
			JOINT RightLeg
			{
				OFFSET -2.22882 -6.12365 0.00000
				CHANNELS 3 Zrotation Yrotation Xrotation
				JOINT RightFoot
				{
					OFFSET -2.21943 -6.09785 0.00000
					CHANNELS 3 Zrotation Yrotation Xrotation
					JOINT RightToeBase
					{
						OFFSET -0.18931 -0.52012 1.59379
						CHANNELS 3 Zrotation Yrotation Xrotation
						End Site
						{
							OFFSET -0.00000 -0.00000 0.84686
						}
					}
				}
			}
		}
	}
	JOINT LowerBack
	{
		OFFSET 0 0 0
		CHANNELS 3 Zrotation Yrotation Xrotation
		JOINT Spine
		{
			OFFSET -0.00200 1.66634 -0.14248
			CHANNELS 3 Zrotation Yrotation Xrotation
			JOINT Spine1
			{
				OFFSET -0.00875 1.64542 0.09514
				CHANNELS 3 Zrotation Yrotation Xrotation
				JOINT Neck
				{
					OFFSET 0 0 0
					CHANNELS 3 Zrotation Yrotation Xrotation
					JOINT Neck1
					{
						OFFSET 0.02257 1.59605 0.00839
						CHANNELS 3 Zrotation Yrotation Xrotation
						JOINT Head
						{
							OFFSET -0.10214 1.57530 -0.23335
							CHANNELS 3 Zrotation Yrotation Xrotation
							End Site
							{
								OFFSET -0.03588 1.60717 -0.08062
							}
						}
					}
				}
				JOINT LeftShoulder
				{
					OFFSET 0 0 0
					CHANNELS 3 Zrotation Yrotation Xrotation
					JOINT LeftArm
					{
						OFFSET 2.54983 1.10186 0.40078
						CHANNELS 3 Zrotation Yrotation Xrotation
						JOINT LeftForeArm
						{
							OFFSET 4.28840 -0.00000 0.00000
							CHANNELS 3 Zrotation Yrotation Xrotation
							JOINT LeftHand
							{
								OFFSET 3.06552 -0.00000 -0.00000
								CHANNELS 3 Zrotation Yrotation Xrotation
								JOINT LeftFingerBase
								{
									OFFSET 0 0 0
									CHANNELS 3 Zrotation Yrotation Xrotation
									JOINT LeftHandIndex1
									{
										OFFSET 0.75304 -0.00000 0.00000
										CHANNELS 3 Zrotation Yrotation Xrotation
										End Site
										{
											OFFSET 0.60712 -0.00000 0.00000
										}
									}
								}
								JOINT LThumb
								{
									OFFSET 0 0 0
									CHANNELS 3 Zrotation Yrotation Xrotation
									End Site
									{
										OFFSET 0.61639 -0.00000 0.61639
									}
								}
							}
						}
					}
				}
				JOINT RightShoulder
				{
					OFFSET 0 0 0
					CHANNELS 3 Zrotation Yrotation Xrotation
					JOINT RightArm
					{
						OFFSET -2.60909 1.35448 0.21802
						CHANNELS 3 Zrotation Yrotation Xrotation
						JOINT RightForeArm
						{
							OFFSET -4.52172 -0.00000 -0.00000
							CHANNELS 3 Zrotation Yrotation Xrotation
							JOINT RightHand
							{
								OFFSET -2.89140 -0.00000 0.00000
								CHANNELS 3 Zrotation Yrotation Xrotation
								JOINT RightFingerBase
								{
									OFFSET 0 0 0
									CHANNELS 3 Zrotation Yrotation Xrotation
									JOINT RightHandIndex1
									{
										OFFSET -0.68054 -0.00000 0.00000
										CHANNELS 3 Zrotation Yrotation Xrotation
										End Site
										{
											OFFSET -0.54867 -0.00000 0.00000
										}
									}
								}
								JOINT RThumb
								{
									OFFSET 0 0 0
									CHANNELS 3 Zrotation Yrotation Xrotation
									End Site
									{
										OFFSET -0.55705 -0.00000 0.55705
									}
								}
							}
						}
					}
				}
			}
		}
	}
}
MOTION
Frames: 11
Frame Time: .0083333
8.7722 15.5527 23.6186 0 0 0 0 0 0 -21 0 0 0 0 0 0 0 0 0 0 0 0 0 0 21 0 0 0 0 0 0 0 0 0 0 0 0 0 0 0 0 0 0 0 0 0 0 -16 0 0 21 0 0 11 0 0 0 -8 0 0 0 0 0 0 0 0 0 0 0 0 0 0 0 0 0 0 0 0 8 0 0 0 0 0 0 0 0 0 0 0 0 0 0 0 0 0
8.7722 15.5527 23.6186 -178.9970 -3.4241 177.8410 0.0000 0.0000 0.0000 -24.2224 -21.4013 4.7617 1.1776 6.8874 19.3823 0.9680 7.1691 -22.5028 4.4710 -12.7621 -38.4843 0.0000 0.0000 0.0000 26.4789 8.6368 3.9991 -0.7839 -5.6524 15.7791 0.9176 -21.6472 -22.8972 -0.1613 -2.5875 7.1324 1.7377 3.2044 8.5753 0.0792 4.4851 -3.4086 -1.5832 2.0843 -8.2892 8.4666 15.0559 -3.8153 1.7645 19.0615 14.6059 0.5042 9.7301 5.6991 0.0000 0.0000 0.0000 -85.0486 15.2451 29.3008 19.2018 -29.6686 -5.1303 -0.0000 -0.0000 17.5122 2.9162 -33.2615 -1.6004 -7.1250 0.0000 -0.0000 -16.2221 -2.1657 17.5309 0.0000 0.0000 0.0000 81.7886 -19.2557 25.8029 -16.4838 26.1722 -3.8569 0.0000 0.0000 27.2006 -4.6502 -52.8627 3.7101 7.1250 -0.0000 -0.0000 69.8235 -72.9535 -52.3448
8.7734 15.5486 23.6228 -179.0680 -3.2680 177.8770 0.0000 0.0000 0.0000 -24.2846 -21.3531 4.5867 1.2071 6.9701 19.6270 0.9636 7.3760 -22.6156 4.5875 -12.9037 -39.0089 0.0000 0.0000 0.0000 26.4442 8.9218 4.3387 -0.7418 -5.5019 15.3458 1.0032 -21.9719 -22.6441 -0.1222 -2.2535 6.2066 1.5968 3.1836 8.5554 0.0373 4.4365 -3.4774 -1.5432 2.0646 -8.3607 8.2509 14.5859 -4.1389 1.9995 18.3529 15.0966 0.5862 9.3827 5.8430 0.0000 0.0000 0.0000 -84.8601 15.1060 28.9047 19.0873 -29.5270 -5.0738 -0.0000 -0.0000 18.1311 2.8379 -32.3594 -1.5198 -7.1250 0.0000 -0.0000 -16.2412 -1.2938 17.3082 0.0000 0.0000 0.0000 81.9735 -19.2426 25.3453 -16.3430 25.9835 -3.7950 0.0000 0.0000 27.9466 -5.3398 -52.8569 4.2610 7.1250 -0.0000 -0.0000 69.4531 -73.2018 -52.2923
8.7738 15.5438 23.6283 -179.0580 -3.1301 177.8630 0.0000 0.0000 0.0000 -24.2666 -21.3188 4.5007 1.2237 7.0163 19.7635 0.9729 7.4379 -22.7422 4.6020 -12.9211 -39.0739 0.0000 0.0000 0.0000 26.4710 9.1926 4.6965 -0.7007 -5.3506 14.9113 0.9617 -21.8661 -22.8729 -0.1526 -2.5172 6.9375 1.6051 3.1715 8.5828 -0.0012 4.4186 -3.5353 -1.5897 2.0518 -8.4362 7.7680 14.0343 -4.6838 2.4895 17.4962 15.7354 0.7858 8.9660 6.0217 0.0000 -0.0000 0.0000 -84.6506 14.9603 28.6528 19.1047 -29.5485 -5.0824 -0.0000 -0.0000 17.9281 1.8436 -31.5452 -0.9648 -7.1250 0.0000 -0.0000 -16.7723 -0.4253 17.6688 0.0000 -0.0000 0.0000 82.1874 -19.2130 24.9504 -16.1832 25.7684 -3.7252 0.0000 0.0000 28.5953 -6.5000 -52.7195 5.1800 7.1250 -0.0000 -0.0000 68.4201 -73.5827 -51.7851
8.7760 15.5434 23.6317 -179.0050 -2.9784 177.8720 0.0000 0.0000 0.0000 -24.1753 -21.2865 4.4026 1.2370 7.0529 19.8722 0.9898 7.4137 -22.8700 4.5184 -12.8200 -38.6984 0.0000 0.0000 0.0000 26.5861 9.6932 5.1097 -0.6597 -5.1947 14.4647 0.9294 -21.8689 -23.2205 -0.2146 -2.9821 8.2290 1.7221 3.1717 8.5825 -0.0682 4.4272 -3.5910 -1.7287 2.0457 -8.4818 7.1203 13.4369 -5.2566 3.1006 16.5761 16.3044 1.0364 8.5196 6.1647 -0.0000 -0.0000 0.0000 -84.3794 14.7581 28.5216 19.1652 -29.6234 -5.1122 -0.0000 -0.0000 17.1962 0.8615 -31.8512 -0.4547 -7.1250 0.0000 -0.0000 -17.3145 -0.6362 18.3613 -0.0000 -0.0000 0.0000 82.5097 -19.1463 24.5749 -16.1075 25.6662 -3.6924 0.0000 0.0000 29.0528 -7.0724 -52.8587 5.6482 7.1250 -0.0000 -0.0000 68.5895 -73.8365 -52.2273
8.7783 15.5457 23.6338 -178.9420 -2.7409 177.9040 0.0000 0.0000 0.0000 -24.0687 -21.1563 4.3046 1.2453 7.0755 19.9394 0.9911 7.5649 -22.9926 4.5224 -12.8249 -38.7166 0.0000 0.0000 0.0000 26.7249 10.2013 5.5172 -0.6224 -5.0486 14.0471 0.9262 -21.9319 -23.3807 -0.2738 -3.3655 9.2981 1.8672 3.1917 8.5787 -0.1400 4.4654 -3.6362 -1.8922 2.0528 -8.5104 6.4989 12.8155 -5.7814 3.5359 15.6624 16.7514 1.2264 8.0674 6.2891 0.0000 0.0000 0.0000 -84.0943 14.6090 28.3976 19.1639 -29.6218 -5.1116 -0.0000 -0.0000 16.9080 0.9257 -32.0076 -0.4907 -7.1250 0.0000 -0.0000 -17.2808 -0.7907 18.3694 0.0000 0.0000 0.0000 82.8375 -19.0311 24.2691 -16.0436 25.5798 -3.6648 0.0000 0.0000 29.6928 -7.0242 -52.4933 5.5825 7.1250 -0.0000 -0.0000 67.4112 -73.7026 -51.0053
8.7775 15.5496 23.6366 -178.9110 -2.5778 177.9890 0.0000 0.0000 0.0000 -24.0047 -21.1074 4.1711 1.2533 7.0975 20.0045 0.9988 7.6788 -23.1424 4.4911 -12.7868 -38.5754 0.0000 0.0000 0.0000 26.7907 10.5244 5.7681 -0.5911 -4.9222 13.6867 0.9498 -22.0297 -23.3328 -0.3069 -3.5618 9.8470 1.9594 3.1559 8.5340 -0.1999 4.4217 -3.7119 -2.0000 2.0220 -8.5563 5.8602 12.1230 -6.3782 3.8876 14.6615 17.2943 1.3977 7.5658 6.4707 0.0000 0.0000 0.0000 -83.8800 14.6164 28.2158 19.1597 -29.6166 -5.1095 -0.0000 -0.0000 16.9338 1.8208 -31.8100 -0.9600 -7.1250 0.0000 -0.0000 -16.7885 -0.6766 17.7624 0.0000 0.0000 0.0000 83.0805 -18.9125 24.2125 -16.0029 25.5246 -3.6472 0.0000 0.0000 30.0265 -6.8599 -52.0384 5.4183 7.1250 -0.0000 -0.0000 66.0319 -73.4874 -49.5219
8.7777 15.5531 23.6399 -178.8100 -2.4774 178.1330 0.0000 0.0000 0.0000 -23.8421 -21.2179 3.9807 1.2636 7.1253 20.0872 0.9978 7.7643 -23.1976 4.4455 -12.7307 -38.3687 0.0000 0.0000 0.0000 26.9311 10.8312 5.8280 -0.5711 -4.8396 13.4515 1.0203 -22.3348 -23.2209 -0.2895 -3.4599 9.5618 2.0545 3.0778 8.3476 -0.2130 4.3200 -3.8016 -2.0424 1.9649 -8.5411 4.9680 11.4522 -6.9606 4.5180 13.6750 17.8730 1.6904 7.0758 6.6320 0.0000 0.0000 0.0000 -83.7188 14.6010 27.9527 19.1137 -29.5598 -5.0868 -0.0000 -0.0000 17.0095 2.7689 -31.8695 -1.4627 -7.1250 0.0000 -0.0000 -16.2683 -0.8179 17.2037 0.0000 0.0000 0.0000 83.2309 -18.8995 24.5429 -16.1863 25.7725 -3.7266 0.0000 0.0000 29.5701 -6.2815 -52.4457 4.9872 7.1250 -0.0000 -0.0000 67.6506 -73.4142 -50.8957
8.7800 15.5522 23.6438 -178.6500 -2.2774 178.2060 0.0000 0.0000 0.0000 -23.6313 -21.2844 3.8617 1.2749 7.1560 20.1784 0.9931 7.9401 -23.2896 4.4596 -12.7481 -38.4326 0.0000 0.0000 0.0000 27.1471 11.1030 5.8468 -0.5636 -4.8086 13.3633 1.0676 -22.5356 -23.1408 -0.2646 -3.3091 9.1405 2.0633 3.0327 8.1339 -0.1321 4.2597 -3.8001 -1.9388 1.9398 -8.4230 4.1779 10.7235 -7.4124 4.9352 12.6570 18.2541 1.8888 6.5621 6.7449 0.0000 0.0000 0.0000 -83.6446 14.4852 27.6238 19.0946 -29.5360 -5.0774 -0.0000 -0.0000 17.0582 3.2998 -31.9094 -1.7456 -7.1250 0.0000 -0.0000 -15.9767 -0.9059 16.8939 0.0000 0.0000 0.0000 83.2525 -18.7326 25.0766 -16.4228 26.0906 -3.8300 0.0000 0.0000 28.6751 -5.3344 -53.0187 4.2657 7.1250 -0.0000 -0.0000 69.9714 -73.2489 -52.8212
8.7816 15.5477 23.6457 -178.6450 -2.0056 178.2640 0.0000 0.0000 0.0000 -23.6306 -21.3692 3.8102 1.2875 7.1899 20.2791 0.9945 8.2464 -23.5351 4.4419 -12.7263 -38.3522 0.0000 0.0000 0.0000 27.1691 11.2669 5.7921 -0.5653 -4.8155 13.3832 1.0867 -22.5446 -22.9550 -0.2154 -2.9879 8.2451 1.8985 3.0173 7.9433 -0.0919 4.2172 -3.7835 -1.7858 1.9319 -8.3102 3.6623 9.8588 -7.9216 4.9201 11.4949 18.6408 1.9083 5.9628 6.9302 -0.0000 -0.0000 0.0000 -83.5198 14.4665 27.5002 19.1856 -29.6487 -5.1224 -0.0000 -0.0000 16.8016 3.8166 -31.4752 -1.9949 -7.1250 0.0000 -0.0000 -15.6801 -0.5387 16.4531 -0.0000 -0.0000 0.0000 83.2767 -18.5759 25.4442 -16.2470 25.8544 -3.7530 0.0000 0.0000 29.9158 -6.4834 -51.5478 5.0857 7.1250 -0.0000 -0.0000 64.7090 -73.1703 -47.9890
8.7842 15.5464 23.6471 -178.6890 -1.6229 178.3390 0.0000 0.0000 0.0000 -23.6827 -21.4135 3.7671 1.2992 7.2212 20.3723 0.9900 8.5998 -23.7716 4.3732 -12.6412 -38.0397 0.0000 0.0000 0.0000 27.1303 11.5132 5.7035 -0.5735 -4.8496 13.4802 1.0933 -22.4824 -22.7487 -0.1857 -2.7754 7.6542 1.7117 3.0393 7.7774 -0.0880 4.2202 -3.8127 -1.6688 1.9440 -8.2584 3.0612 8.9988 -8.1596 4.9834 10.3564 18.8656 1.9431 5.3722 7.0123 0.0000 0.0000 0.0000 -83.3796 14.5443 27.5149 19.2660 -29.7479 -5.1622 -0.0000 -0.0000 16.4213 4.3960 -30.6466 -2.2441 -7.1250 0.0000 -0.0000 -15.3360 0.2015 15.8616 0.0000 0.0000 0.0000 83.3247 -18.6135 26.3183 -16.6053 26.3345 -3.9106 0.0000 0.0000 29.1377 -5.7054 -51.8016 4.4894 7.1250 -0.0000 -0.0000 65.9532 -72.9806 -48.8798
